<svg width="200" height="24" viewBox="0 0 200 24" fill="none" xmlns="http://www.w3.org/2000/svg">
<mask id="mask0_974_2706" style="mask-type:luminance" maskUnits="userSpaceOnUse" x="0" y="0" width="200" height="24">
<path d="M200 0H0V23.7835H200V0Z" fill="white"/>
</mask>
<g mask="url(#mask0_974_2706)">
<path d="M38.5737 13.3175C38.5737 9.47051 41.0973 6.84961 45.1559 6.84961C48.4861 6.84961 50.5935 8.57318 51.0964 11.2918L48.7203 11.6561C48.3647 9.82589 47.1072 8.74199 45.0692 8.74199C42.4936 8.74199 40.9672 10.5366 40.9672 13.2907C40.9672 16.045 42.5109 17.8574 45.1212 17.8574C47.0552 17.8574 48.356 16.8445 48.7896 15.0854L51.0964 15.5475C50.3941 18.1151 48.356 19.7676 45.0692 19.7676C40.8979 19.7676 38.5737 17.0933 38.5737 13.2997V13.3175Z" fill="black"/>
<path d="M52.3458 13.3177C52.3458 9.37303 54.9735 6.84985 58.954 6.84985C62.9346 6.84985 65.5537 9.36414 65.5537 13.3177C65.5537 17.2712 62.926 19.7856 58.954 19.7856C54.9822 19.7856 52.3458 17.2357 52.3458 13.3177ZM63.1689 13.3177C63.1689 10.5102 61.5385 8.71559 58.9628 8.71559C56.3871 8.71559 54.7394 10.5102 54.7394 13.3177C54.7394 16.1252 56.3698 17.9198 58.9628 17.9198C61.5558 17.9198 63.1689 16.1252 63.1689 13.3177Z" fill="black"/>
<path d="M67.6161 7.19678H70.2439L76.0456 15.2994C76.3664 15.7791 76.6527 16.2678 76.8348 16.7297H76.8695C76.8521 16.2499 76.8521 15.7435 76.8521 15.1483V7.19678H78.9422V19.4395H76.4532L70.5127 11.248C70.1744 10.7505 69.9056 10.2796 69.7408 9.8532H69.6888C69.7062 10.3152 69.7062 10.8216 69.7062 11.4257V19.4395H67.6161V7.19678Z" fill="black"/>
<path d="M80.4866 7.19653H82.9755L86.3057 15.8854C86.5051 16.4896 86.6266 16.9161 86.7133 17.3336H86.7653C86.852 16.9161 86.9648 16.4896 87.1903 15.8854L90.5204 7.19653H93.0093L88.0661 19.4392H85.4211L80.4952 7.19653H80.4866Z" fill="black"/>
<path d="M104.05 17.6271V19.4395H94.5447V7.19678H103.937V9.00918H96.8515V12.3053H103.651V14.0644H96.8515V17.6359H104.05V17.6271Z" fill="black"/>
<path d="M110.121 13.0783L105.524 7.19678H108.265L111.109 11.0082C111.361 11.3369 111.465 11.5057 111.56 11.7278H111.612C111.716 11.5057 111.812 11.328 112.063 11.0259L114.908 7.19678H117.588L113.026 13.1404L117.943 19.4306H115.168L112.089 15.326C111.803 14.8906 111.664 14.7218 111.552 14.4642H111.517C111.396 14.7041 111.213 14.9973 110.979 15.326L107.901 19.4306H105.221L110.121 13.0693V13.0783Z" fill="black"/>
<path d="M134.465 17.627V19.4394H124.96V7.19678H134.352V9.00918H127.266V12.3053H134.065V14.0643H127.266V17.636H134.465V17.627Z" fill="black"/>
<path d="M137.049 7.19653H139.676L145.477 15.2991C145.798 15.7789 146.085 16.2676 146.267 16.7295H146.302C146.285 16.2497 146.285 15.7433 146.285 15.1481V7.19653H148.375V19.4392H145.886L139.945 11.2478C139.607 10.7503 139.338 10.2794 139.173 9.85296H139.121C139.138 10.315 139.138 10.8214 139.138 11.4255V19.4392H137.049V7.19653Z" fill="black"/>
<path d="M160.992 17.6271V19.4395H151.487V7.19678H160.879V9.00918H153.793V12.3053H160.592V14.0644H153.793V17.6359H160.992V17.6271Z" fill="black"/>
<path d="M168.961 14.6327H165.882V19.4392H163.576V7.19653H169.698C172.977 7.19653 174.026 8.99117 174.026 10.8835C174.026 12.2962 173.289 13.7976 171.355 14.3129L174.416 19.4303H171.823L168.961 14.6239V14.6327ZM165.882 12.927H169.282C171.017 12.927 171.623 11.9941 171.623 10.9102C171.623 9.82631 171.034 8.96452 169.282 8.96452H165.882V12.927Z" fill="black"/>
<path d="M175.25 13.3533C175.25 9.5242 177.755 6.85889 181.849 6.85889C185.284 6.85889 187.2 8.70684 187.685 10.7058L185.326 11.1234C185.006 9.86181 183.879 8.68907 181.78 8.68907C179.169 8.68907 177.609 10.537 177.609 13.3444C177.609 16.1519 179.126 17.9644 181.815 17.9644C184.503 17.9644 185.647 16.1697 185.665 14.7571V14.5883H181.641V12.847H187.764V19.4481H186.063L185.899 17.4491C185.18 18.844 183.592 19.7945 181.337 19.7945C177.565 19.7945 175.25 17.1558 175.25 13.3623V13.3533Z" fill="black"/>
<path d="M192.741 14.9441L187.833 7.20581H190.426L193.574 12.341C193.738 12.6342 193.842 12.8563 193.895 13.0607H193.929C193.981 12.8563 194.077 12.6253 194.267 12.341L197.45 7.20581H200.008L195.065 14.9441V19.4397H192.758V14.9441H192.741Z" fill="black"/>
<path d="M12.5922 23.7835L10.2333 22.9661L5.82777 10.3592L1.25749 8.11145L0 0L10.1206 3.90914L11.0398 11.3098L11.1179 11.8873L11.1959 12.5625L12.5922 23.7835Z" fill="black"/>
<path d="M16.6875 23.7835L19.055 22.9661L23.4605 10.3592L28.0308 8.11145L29.2883 0L19.1678 3.90914L16.6875 23.7835Z" fill="black"/>
</g>
</svg>