<svg width="500" height="500" viewBox="0 0 500 500" fill="none" xmlns="http://www.w3.org/2000/svg">
<circle cx="400" cy="401" r="25" fill="#73AF8A"/>
<path d="M159.232 105.683C159.232 89.1141 172.663 75.6826 189.232 75.6826H199.232C204.755 75.6826 209.232 80.1598 209.232 85.6826V395.683C209.232 412.251 195.8 425.683 179.232 425.683H169.232C163.709 425.683 159.232 421.205 159.232 415.683V105.683Z" fill="#94E8B4"/>
<path d="M289.232 105.683C289.232 89.1141 302.663 75.6826 319.232 75.6826H329.232C334.755 75.6826 339.232 80.1598 339.232 85.6826V395.683C339.232 412.251 325.8 425.683 309.232 425.683H299.232C293.709 425.683 289.232 421.205 289.232 415.683V105.683Z" fill="#94E8B4"/>
<path d="M85 340C79.4772 340 75 335.523 75 330V320C75 303.431 88.4315 290 105 290H415C420.523 290 425 294.477 425 300V310C425 326.569 411.569 340 395 340H85Z" fill="#94E8B4"/>
<path d="M85 210C79.4772 210 75 205.523 75 200V190C75 173.431 88.4315 160 105 160L415 160C420.523 160 425 164.477 425 170V180C425 196.569 411.569 210 395 210L85 210Z" fill="#94E8B4"/>
</svg>
